<?xml version="1.0" standalone="no"?>
<!DOCTYPE svg PUBLIC "-//W3C//DTD SVG 20010904//EN"
 "http://www.w3.org/TR/2001/REC-SVG-20010904/DTD/svg10.dtd">
<svg version="1.0" xmlns="http://www.w3.org/2000/svg"
 width="784.000000pt" height="1280.000000pt" viewBox="0 0 784.000000 1280.000000"
 preserveAspectRatio="xMidYMid meet">

<g transform="translate(0.000000,1280.000000) scale(0.100000,-0.100000)"
fill="#000000" stroke="none">
<path d="M3040 12778 c-1 -13 -5 -54 -10 -93 -4 -38 -20 -169 -35 -290 -40
-335 -43 -365 -55 -440 -10 -62 -15 -112 -35 -315 -2 -30 -9 -120 -15 -200
-12 -172 -10 -177 86 -179 64 0 70 -3 59 -28 -4 -10 -9 -26 -10 -35 -1 -9 -27
-40 -58 -69 -59 -54 -71 -83 -38 -94 23 -7 50 2 76 26 11 10 41 25 65 34 25 9
56 28 71 43 49 52 103 97 111 94 5 -1 68 -9 141 -17 73 -8 164 -20 202 -25
212 -32 388 -54 525 -67 60 -5 68 -9 98 -44 40 -46 54 -49 46 -10 -8 39 23 46
73 15 21 -13 48 -24 60 -24 12 0 25 -5 29 -12 5 -7 10 -4 16 11 6 18 13 22 31
17 12 -3 60 -9 107 -11 47 -3 101 -10 120 -15 19 -6 59 -10 88 -10 53 0 55 -1
143 -81 67 -62 89 -88 90 -108 0 -14 3 -21 5 -15 7 18 47 5 83 -26 18 -16 37
-30 42 -32 7 -2 7 -13 -1 -32 -6 -17 -15 -26 -24 -23 -10 4 -12 0 -9 -13 6
-23 -31 -36 -76 -27 -15 3 -33 1 -39 -5 -9 -9 -18 -8 -36 2 -15 8 -35 10 -53
5 -15 -4 -48 -9 -73 -12 -25 -2 -50 -12 -57 -20 -15 -19 -51 -11 -90 20 -15
13 -44 30 -63 37 -19 8 -51 24 -70 35 -44 28 -65 34 -115 36 -22 1 -76 15
-120 32 -72 27 -94 30 -222 33 -81 3 -162 0 -190 -6 -26 -6 -66 -14 -88 -17
-22 -3 -48 -9 -57 -14 -9 -5 -25 -9 -35 -9 -27 0 -111 -46 -143 -77 -61 -60
-120 -98 -154 -99 -45 -1 -170 -79 -244 -151 -30 -29 -58 -53 -62 -53 -12 0
-66 -85 -84 -132 -10 -27 -22 -48 -27 -48 -6 0 -8 -4 -5 -9 3 -4 -8 -35 -23
-67 -16 -32 -48 -120 -71 -194 -24 -74 -53 -151 -65 -170 -30 -48 -82 -202
-95 -280 -5 -36 -19 -89 -30 -118 -11 -29 -23 -80 -27 -112 -3 -33 -10 -57
-15 -54 -5 3 -6 15 -2 27 6 19 5 20 -10 8 -10 -9 -16 -26 -14 -47 1 -19 -3
-39 -10 -46 -7 -7 -12 -22 -12 -35 0 -13 -6 -23 -12 -23 -7 0 -30 -16 -50 -35
-37 -35 -73 -50 -49 -21 17 20 -17 30 -70 21 -42 -7 -62 -29 -74 -77 -9 -37
-22 -35 -30 2 -8 35 -25 40 -25 8 0 -19 -2 -20 -10 -8 -8 13 -11 11 -16 -7 -4
-13 -10 -23 -14 -23 -4 0 -10 -10 -13 -22 -6 -21 -7 -21 -27 -3 -20 18 -78 24
-89 7 -3 -4 -14 -11 -24 -15 -10 -4 -16 -11 -12 -16 3 -6 -2 -14 -12 -19 -14
-8 -15 -13 -4 -25 7 -9 26 -19 42 -22 37 -8 36 -16 -1 -52 -16 -15 -30 -36
-30 -45 0 -10 -5 -18 -11 -18 -5 0 -15 -13 -20 -29 -7 -19 -22 -34 -42 -42
-18 -6 -53 -29 -79 -51 -26 -21 -54 -38 -62 -38 -9 0 -24 -17 -35 -37 -10 -21
-28 -47 -40 -57 -12 -11 -21 -27 -21 -36 0 -18 -43 -63 -52 -54 -3 3 -21 -13
-39 -36 -19 -23 -47 -49 -64 -57 -16 -8 -44 -30 -62 -49 -28 -30 -35 -33 -59
-24 -48 19 -109 -13 -147 -76 -17 -30 -35 -54 -40 -54 -4 0 -5 4 -2 10 3 5 -1
20 -10 34 -26 39 -21 182 8 213 9 11 17 27 17 36 0 9 5 19 10 22 6 3 10 17 10
31 0 13 6 24 13 25 6 1 -5 5 -26 10 -41 10 -87 -10 -87 -37 0 -15 -35 -54 -48
-54 -11 0 -42 72 -42 99 0 25 -28 40 -40 20 -5 -7 -7 -16 -5 -20 3 -3 -5 -39
-16 -80 -24 -84 -28 -107 -30 -167 -2 -71 -39 -152 -69 -152 -13 0 -13 6 4 39
15 28 17 186 2 209 -3 5 -9 38 -12 71 -4 34 -11 61 -15 61 -5 0 -9 -9 -9 -20
0 -12 -12 -33 -26 -47 -23 -23 -28 -38 -34 -117 -5 -50 -13 -120 -20 -156 -6
-35 -8 -75 -5 -87 16 -65 -78 -242 -99 -187 -9 23 -46 17 -46 -7 0 -17 3 -19
14 -10 11 10 14 7 12 -14 -1 -26 -6 -27 -49 -10 -13 6 -20 2 -24 -13 -2 -11
-15 -23 -28 -26 -13 -3 -27 -15 -30 -26 -3 -11 -14 -20 -23 -20 -9 0 -26 -7
-37 -16 -17 -13 -18 -16 -5 -24 13 -9 13 -11 0 -20 -13 -9 -13 -11 -1 -19 12
-8 13 -12 1 -26 -7 -9 -19 -14 -27 -11 -8 3 -13 -2 -13 -13 0 -10 -11 -23 -25
-29 -18 -8 -25 -19 -25 -40 0 -23 -10 -36 -55 -68 -30 -21 -54 -46 -55 -55 0
-21 -36 -53 -49 -44 -6 3 -11 -1 -11 -9 0 -9 -16 -32 -35 -52 -19 -19 -35 -40
-35 -45 0 -5 -7 -9 -15 -9 -8 0 -15 -4 -15 -9 0 -16 -48 -62 -62 -60 -35 5
-98 -15 -119 -40 -13 -14 -23 -28 -22 -31 0 -3 -8 -11 -18 -18 -18 -13 -19
-47 -19 -938 l0 -925 21 14 c14 10 30 12 54 7 23 -5 37 -3 47 6 7 8 35 16 61
19 26 2 56 9 66 15 11 5 28 10 39 10 11 0 25 7 32 15 8 9 29 15 56 15 23 0 45
4 48 9 3 4 24 8 47 8 23 0 44 6 49 12 4 7 32 15 63 18 32 3 57 9 57 12 0 4 35
5 77 4 54 -2 72 0 58 6 -20 9 -20 10 1 10 12 1 27 8 34 16 7 8 21 15 32 15 11
0 26 7 34 15 11 10 37 15 85 15 39 0 79 5 91 11 11 6 32 8 46 4 25 -7 25 -8 7
-15 -11 -5 -30 -6 -42 -3 -18 4 -23 1 -23 -15 0 -11 -6 -23 -13 -25 -9 -4 -8
-8 3 -16 15 -10 34 5 24 21 -3 4 7 10 22 14 16 4 29 2 34 -6 5 -8 12 -2 21 19
11 24 20 31 41 31 21 0 28 -5 28 -19 0 -14 5 -18 20 -14 13 4 29 -5 50 -28 16
-18 30 -37 30 -41 0 -5 10 -8 21 -8 17 0 20 -5 16 -21 -3 -12 0 -22 9 -26 8
-3 14 -11 14 -19 0 -16 36 -19 45 -4 12 19 36 11 35 -12 -1 -13 -2 -38 -1 -55
1 -37 -6 -35 121 -33 41 1 86 -3 100 -8 19 -7 28 -5 37 7 12 15 14 15 27 -1
17 -23 26 -23 26 0 0 14 7 17 45 14 36 -3 45 -1 45 12 0 22 13 20 35 -4 23
-25 45 -26 45 -1 0 13 -8 21 -22 23 -26 3 -27 18 -3 33 20 13 35 -8 35 -52 0
-40 37 -84 51 -62 5 8 9 33 9 57 0 31 4 42 15 42 8 0 15 6 15 13 1 6 9 2 19
-10 19 -23 71 -32 71 -13 0 6 -11 10 -25 10 -18 0 -23 4 -19 15 7 17 94 22 94
5 0 -6 5 -16 10 -23 6 -7 17 -21 24 -32 11 -16 16 -17 29 -7 19 16 24 7 24
-38 0 -19 -2 -27 -4 -17 -3 9 -11 17 -19 17 -10 0 -14 -12 -14 -40 0 -41 6
-46 53 -42 19 2 23 -18 6 -35 -13 -13 -4 -33 14 -33 7 0 13 -10 13 -22 4 -66
19 -131 33 -145 12 -12 13 -17 3 -21 -22 -7 -13 -19 11 -15 20 4 28 -3 51 -47
20 -38 24 -56 17 -63 -6 -6 -11 -52 -11 -106 0 -58 -6 -112 -15 -136 -8 -22
-14 -76 -15 -120 0 -88 -14 -145 -54 -219 -14 -27 -26 -59 -26 -72 0 -36 -19
-77 -48 -105 -15 -14 -45 -47 -67 -73 -22 -26 -45 -53 -50 -60 -33 -37 -45
-69 -45 -123 0 -38 -6 -67 -18 -84 -70 -107 -201 -253 -473 -529 -36 -37 -77
-91 -92 -121 -15 -30 -53 -94 -84 -144 -88 -142 -103 -171 -114 -230 -8 -45
-73 -208 -108 -272 -57 -104 -123 -261 -145 -343 -13 -52 -38 -101 -60 -119
-26 -22 -84 -145 -105 -223 -16 -64 -42 -130 -57 -147 -2 -2 -10 2 -18 8 -16
13 -40 -9 -108 -99 -18 -25 -43 -49 -54 -54 -33 -15 -57 -77 -49 -125 9 -52
-11 -173 -36 -227 -16 -34 -26 -43 -53 -48 -46 -9 -56 -47 -25 -89 32 -44 38
-144 11 -189 -12 -18 -27 -45 -34 -58 -8 -14 -30 -50 -49 -80 -97 -150 -174
-328 -200 -465 -5 -27 -12 -58 -15 -67 -5 -17 100 -18 2108 -18 1741 1 2116 3
2131 14 25 19 21 29 -9 23 -18 -3 -24 -1 -20 8 2 7 8 45 12 84 8 89 20 100 77
72 24 -11 53 -31 66 -42 19 -18 25 -19 32 -8 5 8 7 19 5 26 -7 18 31 22 179
18 91 -3 141 -1 145 6 8 13 57 2 63 -14 2 -7 1 -46 -3 -87 -4 -41 -5 -81 -2
-87 3 -10 53 -13 202 -13 l198 0 6 88 c4 48 11 132 17 187 6 55 9 219 7 365
-3 246 -2 265 15 268 9 2 17 11 17 20 0 9 3 28 6 42 5 24 5 24 -10 6 -20 -25
-36 -12 -36 29 0 37 17 56 31 34 15 -23 26 5 33 84 3 38 9 81 12 93 l6 23 147
-6 c228 -9 398 26 573 119 135 72 293 208 368 316 14 20 31 43 37 50 7 7 21
32 32 55 22 48 50 88 51 70 0 -6 -4 -15 -10 -18 -5 -3 -10 -16 -9 -28 0 -15 2
-17 6 -7 3 8 11 21 16 29 15 18 21 65 7 56 -9 -6 -2 18 26 90 4 11 9 25 9 30
6 41 18 85 24 85 3 0 7 64 9 143 3 144 -13 305 -41 397 -8 25 -13 72 -11 104
1 32 -1 54 -5 48 -3 -6 -7 8 -7 31 0 23 -2 75 -4 115 -3 46 0 76 6 80 19 12
46 74 41 93 -3 11 1 41 8 68 7 27 11 59 8 72 -2 13 3 69 13 124 9 55 16 110
15 122 0 13 6 49 15 80 9 32 20 107 24 166 4 61 12 112 18 116 16 9 35 107 28
136 -4 14 0 40 8 59 8 19 18 81 22 137 3 56 7 106 7 113 3 38 -17 236 -26 264
-8 24 -8 40 2 67 8 22 9 41 3 51 -6 10 -5 34 1 62 9 42 7 47 -14 65 -13 10
-19 21 -13 25 17 13 45 72 39 82 -4 6 -1 26 5 44 10 31 15 34 63 41 29 4 61 9
72 11 11 3 45 9 75 13 61 10 150 38 165 52 5 5 17 9 27 9 42 0 148 62 224 131
93 84 115 113 139 177 41 111 68 178 79 197 7 11 21 44 30 72 16 47 17 86 11
385 -13 737 -10 673 -43 726 -17 26 -35 65 -41 87 -13 47 -14 125 -2 143 10
17 -41 168 -62 185 -8 7 -27 50 -42 97 -15 47 -36 111 -46 142 -11 32 -19 71
-19 87 0 17 -6 48 -14 68 -8 21 -17 53 -20 71 -3 19 -15 41 -25 50 -11 9 -29
51 -41 92 -58 201 -60 220 -20 220 11 0 20 4 20 10 0 5 -6 7 -14 4 -39 -15
-76 129 -105 406 -4 47 -18 109 -31 140 -17 42 -22 72 -21 125 1 39 2 90 3
115 2 58 -15 108 -49 144 -25 27 -27 35 -24 107 1 48 -4 97 -13 126 -8 27 -21
71 -28 98 -11 39 -22 55 -51 74 -30 20 -37 31 -43 70 -3 25 -19 80 -35 121
-16 41 -29 86 -29 100 0 29 -22 65 -48 79 -17 9 -114 1 -207 -18 -27 -6 -75
-14 -105 -19 -31 -6 -77 -17 -102 -26 -26 -8 -54 -13 -63 -10 -8 4 -26 -1 -40
-10 -18 -12 -48 -16 -112 -16 -78 0 -85 1 -67 14 19 15 19 15 -1 30 -23 17
-95 22 -95 6 0 -7 -7 -7 -21 1 -14 7 -19 17 -15 30 3 10 9 28 12 39 5 16 2 20
-15 20 -13 0 -21 -6 -21 -17 -1 -25 -26 -57 -35 -44 -3 6 -4 20 0 30 3 11 1
22 -5 26 -13 8 -13 42 1 51 6 3 15 1 19 -6 19 -30 39 16 24 54 -8 20 -48 21
-68 1 -20 -21 -36 -19 -36 4 0 14 -5 18 -19 14 -22 -6 -43 26 -47 70 -2 31
-14 50 -14 23 0 -33 -23 -10 -37 37 -7 26 -19 47 -25 47 -6 0 -16 8 -23 17
-11 15 -15 15 -30 3 -11 -9 -19 -10 -23 -3 -17 25 -98 73 -123 73 -15 0 -31 5
-34 10 -3 6 -16 8 -29 4 -15 -3 -37 4 -65 23 -34 22 -41 32 -37 49 5 17 -1 28
-25 45 -21 15 -29 27 -26 40 3 11 1 17 -3 14 -5 -3 -19 5 -32 17 -13 13 -37
33 -53 46 -16 12 -25 22 -20 22 6 0 4 4 -3 8 -7 5 -10 16 -6 26 6 16 15 17 63
12 31 -4 66 -13 78 -21 12 -8 31 -15 42 -15 11 0 22 -4 26 -10 3 -5 12 -7 19
-4 7 3 16 -2 19 -10 4 -9 14 -16 24 -16 10 0 29 -7 43 -14 76 -43 117 -57 158
-54 29 2 42 -1 42 -9 0 -7 6 -13 14 -13 7 0 20 -7 27 -17 8 -9 27 -22 44 -29
l30 -12 -27 -13 c-47 -21 -46 -69 4 -127 25 -30 68 -44 68 -22 0 6 14 -5 31
-25 34 -39 49 -44 49 -17 0 14 2 15 10 2 5 -8 10 -27 10 -41 0 -15 7 -29 15
-33 9 -3 15 -19 15 -41 0 -22 6 -38 15 -41 8 -4 15 -12 15 -20 0 -23 14 -16
68 34 57 52 62 66 32 84 -21 13 -28 48 -10 48 14 0 13 37 -1 46 -8 5 -8 8 0
13 17 11 -7 71 -40 101 -32 29 -49 61 -49 89 0 12 -4 21 -10 21 -5 0 -16 14
-25 30 -9 17 -22 30 -30 30 -8 0 -15 5 -15 10 0 6 -6 10 -12 10 -7 0 -31 16
-53 35 -22 19 -44 35 -49 35 -5 0 -19 8 -30 18 -20 17 -74 37 -121 45 -12 1
-19 9 -17 19 1 9 -4 18 -13 22 -24 9 -18 45 9 55 13 5 26 17 29 25 7 18 47 22
47 5 0 -7 10 -9 25 -7 17 4 25 1 25 -8 0 -15 16 -20 105 -33 52 -8 148 -32
195 -48 8 -3 27 -5 41 -4 14 1 31 -4 38 -12 6 -8 21 -13 31 -10 14 4 20 0 20
-11 0 -9 7 -16 15 -16 21 0 19 12 -5 33 -11 9 -20 26 -20 36 0 20 -66 91 -85
91 -5 0 -20 16 -33 36 -12 19 -34 39 -47 44 -17 6 -25 17 -25 33 0 13 -7 32
-15 43 -8 10 -15 40 -15 66 0 37 -4 50 -20 58 -11 6 -20 7 -20 3 0 -4 -5 -2
-12 5 -7 7 -18 12 -25 12 -18 0 -63 45 -63 63 0 8 -11 18 -25 21 -14 4 -29 14
-32 24 -4 9 -20 28 -35 42 -15 13 -28 33 -28 42 0 10 -10 22 -23 27 -31 12
-83 62 -91 88 -4 12 -18 24 -34 28 -15 3 -35 12 -46 20 -16 12 -17 19 -8 55 6
26 7 53 1 73 -12 43 -12 47 9 46 23 0 86 -35 160 -86 34 -24 65 -43 71 -43 5
0 38 -30 73 -66 65 -68 120 -104 160 -104 30 0 47 42 37 90 -9 42 -5 188 6
213 4 10 3 36 -4 56 -6 21 -11 50 -11 64 0 26 43 81 69 89 8 2 20 23 26 46 11
34 10 43 -1 53 -11 9 -14 6 -14 -18 0 -25 -5 -30 -45 -42 -25 -7 -49 -21 -54
-30 -8 -14 -32 -16 -178 -15 -219 1 -303 14 -353 54 -27 21 -40 41 -45 67 -10
55 -4 433 8 476 7 27 25 50 56 75 25 20 49 41 53 47 5 6 11 6 19 -2 8 -8 8
-17 -1 -33 -9 -16 -14 -19 -20 -11 -5 9 -11 8 -24 -4 -9 -9 -14 -20 -11 -25 3
-5 -6 -30 -20 -57 -15 -28 -22 -49 -15 -51 5 -2 10 -15 10 -29 0 -15 12 -36
31 -54 18 -17 28 -33 23 -40 -4 -7 -3 -9 4 -5 6 3 17 -1 25 -9 19 -18 46 -19
84 -3 15 6 33 10 39 9 20 -3 58 90 57 138 -2 51 -16 83 -55 126 -43 47 -23 57
108 57 63 1 115 6 123 12 11 8 15 8 18 -1 3 -7 13 -13 24 -13 38 0 18 -19 -28
-26 -70 -10 -93 -21 -93 -44 0 -11 -4 -20 -9 -20 -4 0 -16 -25 -26 -56 -20
-63 -13 -89 34 -132 21 -19 23 -25 11 -32 -10 -7 7 -10 53 -10 110 0 157 48
157 162 0 54 -3 62 -35 94 -39 38 -38 54 0 50 52 -6 95 -84 98 -180 1 -22 8
-41 15 -44 15 -5 15 34 0 151 -9 69 -13 80 -34 87 -15 6 -24 18 -24 31 0 17 5
20 26 16 23 -4 25 -2 22 26 -4 36 -19 44 -42 21 -9 -9 -20 -13 -24 -10 -3 4
-2 10 4 14 6 4 14 54 17 112 4 58 10 124 13 148 l7 42 -1602 0 -1601 0 0 -22z
m2039 -284 l23 -27 -43 -37 c-40 -34 -44 -42 -49 -95 -3 -34 -10 -60 -17 -63
-19 -6 -17 135 2 168 8 14 14 35 15 47 0 20 11 30 36 32 6 1 21 -11 33 -25z
m544 13 c15 -1 27 -6 26 -12 0 -5 -11 -9 -25 -8 -13 1 -22 -2 -19 -7 3 -4 -4
-6 -14 -3 -13 3 -21 -2 -26 -16 -3 -12 -18 -24 -31 -27 -16 -4 -23 -12 -20
-20 3 -8 2 -14 -3 -14 -18 0 -24 -101 -22 -320 2 -183 6 -240 22 -304 10 -43
17 -81 14 -86 -6 -9 63 -70 80 -70 7 0 18 -7 25 -15 9 -11 8 -20 -9 -44 -12
-16 -21 -34 -21 -40 0 -6 -4 -11 -10 -11 -13 0 -50 37 -50 51 0 5 -4 7 -10 4
-5 -3 -19 -1 -31 6 -21 11 -22 10 -16 -20 4 -17 3 -31 -2 -31 -13 0 -21 53
-10 65 5 5 9 23 9 40 l-1 30 -24 -27 c-13 -16 -27 -28 -31 -28 -4 0 -15 -7
-25 -16 -20 -18 -43 -10 -35 13 3 8 2 11 -3 8 -5 -3 -12 -1 -16 4 -3 6 4 15
15 21 29 15 26 58 -4 72 -14 6 -32 8 -41 4 -18 -6 -15 -25 11 -84 15 -32 11
-58 -6 -47 -5 3 -17 22 -26 41 -12 25 -20 32 -27 25 -6 -6 -20 -11 -30 -11
-14 0 -18 -5 -14 -20 3 -11 -1 -27 -9 -34 -8 -8 -14 -18 -14 -23 0 -4 -9 -14
-21 -21 -16 -10 -24 -11 -35 -1 -8 6 -18 9 -21 5 -4 -4 -1 -11 6 -15 8 -5 10
-14 6 -21 -10 -16 -11 -193 -1 -208 8 -13 156 -14 156 -1 0 5 18 9 40 9 43 0
60 -18 60 -65 0 -14 7 -28 15 -31 39 -15 5 -25 -87 -25 -13 0 -44 0 -70 0 -30
1 -48 5 -48 12 0 24 -38 -23 -44 -54 -5 -24 -2 -35 11 -44 12 -10 14 -16 6
-24 -8 -8 -16 -4 -28 15 -10 14 -21 23 -26 20 -5 -3 -25 1 -45 8 -29 10 -34
16 -29 35 3 15 -1 25 -14 32 -27 15 -33 69 -11 107 15 27 16 34 4 45 -15 16
-28 349 -13 349 5 0 9 -12 10 -27 0 -24 1 -25 8 -8 5 11 8 98 7 193 -1 96 3
176 7 179 4 3 5 23 2 46 -4 23 -1 73 5 111 11 73 5 140 -11 115 -6 -10 -9 -6
-9 14 0 15 4 27 10 27 14 0 42 59 34 72 -5 7 -2 9 8 5 11 -4 18 1 21 15 8 29
42 20 42 -11 1 -36 23 -37 42 -2 13 22 25 31 45 31 28 0 47 15 26 22 -15 5 -3
38 15 38 9 0 12 -9 9 -30 -6 -40 24 -42 39 -2 18 49 33 54 159 47 63 -3 127
-7 143 -8z m456 -3 c2 -2 -19 -4 -47 -4 -29 0 -52 4 -52 9 0 8 90 3 99 -5z
m28 -20 c-3 -3 -12 -4 -19 -1 -8 3 -5 6 6 6 11 1 17 -2 13 -5z m-1103 -240
c10 -25 6 -76 -9 -114 -13 -34 -13 -33 -14 48 -1 76 9 104 23 66z m-7 -216
c-2 -13 -4 -5 -4 17 -1 22 1 32 4 23 2 -10 2 -28 0 -40z m30 -95 c-3 -10 -5
-4 -5 12 0 17 2 24 5 18 2 -7 2 -21 0 -30z m-7 -78 c0 -19 -4 -35 -10 -35 -5
0 -10 16 -10 35 0 19 5 35 10 35 6 0 10 -16 10 -35z m0 -75 c0 -5 -4 -10 -10
-10 -5 0 -10 5 -10 10 0 6 5 10 10 10 6 0 10 -4 10 -10z m1 -83 c-8 -8 -11 -7
-11 4 0 20 13 34 18 19 3 -7 -1 -17 -7 -23z m1022 -126 c35 -2 7 -19 -42 -26
-46 -6 -91 5 -91 23 0 6 64 7 133 3z m37 -41 c0 -5 -7 -10 -15 -10 -8 0 -15 5
-15 10 0 6 7 10 15 10 8 0 15 -4 15 -10z m-617 -247 c-7 -2 -13 -12 -13 -20 0
-9 -3 -14 -6 -10 -10 10 4 37 18 36 10 0 10 -2 1 -6z m171 -202 c3 -5 -1 -12
-10 -15 -22 -9 -24 -8 -24 9 0 16 25 21 34 6z m126 -25 c0 -8 -4 -17 -9 -20
-5 -3 -12 -22 -15 -41 -7 -38 -26 -48 -26 -14 0 14 -5 19 -14 16 -8 -3 -16 -1
-18 5 -3 8 -12 6 -28 -5 -32 -23 -50 -21 -50 3 0 13 7 20 20 20 11 0 20 5 20
10 0 6 9 10 21 10 15 0 19 5 15 15 -4 12 4 15 39 15 33 0 45 -4 45 -14z m-508
-28 c12 -7 29 -20 39 -29 9 -10 31 -20 48 -24 17 -4 31 -11 31 -16 0 -5 7 -9
17 -9 21 0 93 -32 93 -41 0 -4 -4 -10 -10 -14 -5 -3 -7 -12 -4 -20 6 -16 -25
-35 -56 -35 -13 0 -24 -8 -27 -20 -7 -27 -40 -25 -49 3 -9 31 -26 50 -33 38
-4 -5 -25 6 -49 25 -35 30 -40 39 -32 55 8 15 7 19 -5 19 -10 0 -15 10 -15 33
0 49 13 57 52 35z m345 6 c-3 -3 -12 -4 -19 -1 -8 3 -5 6 6 6 11 1 17 -2 13
-5z m28 -204 c3 -6 -1 -7 -9 -4 -18 7 -21 14 -7 14 6 0 13 -4 16 -10z m144
-147 c0 -31 -2 -34 -9 -18 -12 28 -12 55 0 55 6 0 10 -17 9 -37z m-665 -46
c13 -10 18 -27 19 -62 0 -46 -2 -50 -29 -57 -50 -14 -74 -2 -74 35 0 31 21 73
44 89 15 11 20 10 40 -5z m653 -19 c-3 -8 -6 -5 -6 6 -1 11 2 17 5 13 3 -3 4
-12 1 -19z m3 -68 c0 -5 -7 -7 -15 -4 -8 4 -15 8 -15 10 0 2 7 4 15 4 8 0 15
-4 15 -10z m-666 -229 c24 -27 17 -54 -16 -58 -22 -3 -27 1 -33 27 -11 50 16
67 49 31z m726 9 c0 -5 -5 -10 -11 -10 -5 0 -7 5 -4 10 3 6 8 10 11 10 2 0 4
-4 4 -10z m-338 -306 c11 -10 -24 -64 -42 -64 -29 0 -62 32 -50 50 7 12 12 12
22 2 16 -16 28 -15 28 3 0 14 31 21 42 9z m-202 -54 c0 -13 -7 -20 -20 -20
-19 0 -27 20 -13 33 13 14 33 6 33 -13z m-179 -30 c10 -6 19 -17 19 -25 0 -8
6 -12 15 -9 15 6 24 -16 30 -73 2 -15 6 -38 10 -50 6 -20 4 -23 -19 -23 -16 0
-25 -4 -21 -10 3 -5 2 -10 -4 -10 -5 0 -13 5 -16 10 -3 6 -14 10 -25 10 -22 0
-50 74 -50 135 0 57 16 68 61 45z m526 -226 c-3 -3 -12 -4 -19 -1 -8 3 -5 6 6
6 11 1 17 -2 13 -5z m25 -14 c44 0 54 -4 82 -33 43 -45 59 -67 86 -115 13 -23
27 -42 32 -42 4 0 8 -6 8 -13 0 -7 17 -31 38 -52 52 -55 72 -86 72 -112 0 -12
14 -37 31 -55 45 -48 67 -97 79 -174 6 -37 14 -72 17 -77 4 -6 9 -37 12 -70 5
-45 11 -63 26 -71 40 -23 47 -36 41 -69 -17 -80 -17 -109 -3 -146 l16 -39 -42
20 c-23 11 -49 28 -57 37 -33 35 -70 98 -70 118 0 11 -7 40 -15 63 -8 23 -15
57 -15 74 0 52 -27 141 -70 230 -32 64 -53 93 -93 126 -161 134 -270 305 -258
404 1 4 8 5 17 2 9 -3 38 -6 66 -6z m165 -438 c29 -28 52 -86 39 -99 -3 -3
-35 23 -71 58 -59 57 -64 65 -49 76 20 14 36 7 81 -35z m-1749 -70 c5 -30 -14
-52 -44 -52 -21 0 -24 5 -24 33 0 41 7 49 40 45 17 -2 26 -10 28 -26z m1099
-233 c80 -5 88 -27 104 -307 9 -143 8 -195 -1 -226 -7 -23 -16 -54 -21 -71 -6
-19 -6 -31 0 -33 5 -2 8 -9 5 -17 -3 -8 -12 -11 -20 -8 -21 8 -54 -31 -54 -64
0 -50 -11 -75 -26 -62 -7 6 -18 8 -24 4 -5 -3 -10 -2 -10 3 0 6 -14 7 -36 2
-35 -8 -57 -20 -36 -20 13 0 72 -58 72 -71 0 -5 5 -9 10 -9 6 0 10 -5 10 -12
0 -9 -3 -9 -12 0 -26 26 -40 14 -37 -31 4 -38 2 -43 -13 -39 -10 2 -18 13 -18
23 0 10 -4 21 -10 24 -6 4 -10 -9 -10 -32 0 -27 -6 -42 -20 -51 -11 -7 -20
-21 -20 -32 0 -11 -4 -20 -10 -20 -5 0 -10 7 -10 16 0 9 -6 14 -12 11 -7 -2
-12 -14 -10 -25 2 -17 -2 -22 -17 -22 -23 0 -28 15 -8 23 7 3 5 6 -5 6 -10 1
-18 -3 -18 -9 0 -26 -40 -1 -53 33 -4 10 -11 16 -16 12 -5 -3 -13 5 -17 17 -4
13 -2 24 5 26 6 2 11 12 11 23 0 10 9 28 20 39 11 11 20 24 20 29 0 11 73 20
80 10 9 -13 29 27 20 41 -11 17 0 52 22 72 18 16 18 17 -7 54 -32 47 -30 88 3
92 17 3 22 8 18 19 -4 9 -2 21 4 28 6 7 15 27 20 44 8 29 7 31 -19 31 -56 0
-133 45 -130 77 1 3 -7 10 -16 15 -10 6 -14 17 -10 28 3 10 1 21 -5 25 -6 4
-8 16 -5 26 4 11 1 26 -5 34 -7 8 -10 22 -6 30 3 9 0 15 -9 15 -8 0 -15 3 -15
6 0 10 58 64 69 64 15 0 14 27 -1 33 -24 8 23 49 49 42 18 -4 23 -1 23 14 0
11 11 32 25 47 24 26 26 26 39 9 12 -17 14 -16 27 13 11 25 20 32 41 32 16 0
28 6 29 13 1 6 6 0 12 -15 7 -19 19 -28 34 -29z m-571 -98 c41 4 54 -1 54 -23
0 -21 -1 -21 -13 -3 -13 16 -16 13 -45 -40 -17 -32 -29 -62 -26 -66 3 -5 -6
-14 -21 -21 -19 -9 -28 -9 -37 0 -9 9 -9 12 0 12 7 0 12 5 12 10 0 6 -7 10
-15 10 -8 0 -15 -4 -15 -10 0 -5 -7 -7 -15 -4 -8 4 -15 11 -15 18 0 15 41 41
61 38 13 -2 16 4 14 30 -4 43 12 73 29 59 7 -6 22 -10 32 -10z m-2116 -26 c0
-8 -5 -15 -11 -15 -7 0 -18 -8 -25 -17 -11 -15 -13 -15 -14 -3 0 25 13 38 48
49 1 1 2 -6 2 -14z m9 -84 c31 -6 52 -17 67 -36 26 -32 20 -54 -29 -117 -28
-34 -28 -38 -13 -59 14 -21 14 -24 -1 -41 -9 -10 -24 -18 -35 -18 -11 0 -18
-7 -18 -19 0 -19 -25 -35 -40 -26 -4 2 -46 9 -94 14 -48 6 -104 16 -124 23
-44 15 -70 37 -55 46 5 4 12 15 16 25 3 9 13 17 22 17 8 0 15 8 15 18 0 14 8
18 34 19 31 1 35 -2 38 -26 4 -31 44 -44 50 -15 3 16 4 17 20 1 17 -18 58 -23
58 -8 0 4 8 8 18 8 53 0 56 13 8 42 -34 22 -81 28 -90 12 -3 -4 -17 -6 -31 -4
-23 5 -24 8 -19 47 4 26 17 53 37 73 32 34 57 44 97 36 14 -2 45 -8 69 -12z
m-509 -580 c25 -7 51 -17 59 -21 45 -21 7 -61 -74 -79 -33 -7 -68 -17 -79 -23
-14 -7 -24 -4 -46 17 -16 15 -27 32 -25 39 2 6 6 26 9 44 2 19 20 50 42 75 56
62 58 62 64 9 5 -46 6 -47 50 -61z m317 84 c4 -11 14 -14 34 -11 16 2 27 0 24
-4 -3 -5 -1 -11 5 -15 34 -21 -44 -52 -118 -47 -55 4 -65 18 -24 37 25 11 29
25 7 25 -8 0 -15 7 -15 15 0 21 78 21 87 0z m2693 -10 c0 -1 -7 -8 -15 -15
-13 -10 -15 -9 -15 8 0 15 5 20 15 16 8 -4 15 -7 15 -9z m-3470 -51 c0 -9 -5
-14 -12 -12 -18 6 -21 28 -4 28 9 0 16 -7 16 -16z m256 -81 c-11 -11 -17 4 -9
23 7 18 8 18 11 1 2 -10 1 -21 -2 -24z m-456 -57 c0 -26 -15 -43 -24 -28 -7
12 4 52 15 52 5 0 9 -11 9 -24z m1234 -2 c14 -15 26 -30 26 -34 0 -4 9 -18 20
-31 12 -13 20 -34 18 -49 -3 -26 1 -25 -128 -31 -14 0 -61 3 -105 8 -70 7 -80
10 -80 28 0 13 13 26 40 38 22 11 54 32 72 49 26 25 58 39 104 47 4 1 18 -11
33 -25z m-1254 -55 c0 -6 -4 -7 -10 -4 -5 3 -10 11 -10 16 0 6 5 7 10 4 6 -3
10 -11 10 -16z m-16 -235 c18 -7 22 -39 6 -49 -5 -3 -10 -1 -10 5 0 6 -5 8
-10 5 -6 -4 -8 -11 -5 -16 4 -5 -6 -14 -21 -19 -43 -17 -51 3 -19 44 29 38 33
40 59 30z m5000 -39 c37 -28 54 -73 63 -169 7 -73 -2 -132 -20 -139 -14 -5
-143 35 -157 49 -13 13 -35 177 -27 199 7 17 8 17 27 0 19 -17 20 -17 30 9 5
15 10 31 10 36 0 9 28 40 36 40 3 0 20 -11 38 -25z m-5644 -15 c0 -5 -4 -10
-10 -10 -5 0 -10 5 -10 10 0 6 5 10 10 10 6 0 10 -4 10 -10z m1360 -120 c0
-49 -5 -91 -11 -97 -6 -6 -11 -27 -11 -47 0 -34 -18 -66 -38 -66 -11 0 -10 35
1 75 17 60 27 160 17 173 -7 8 -7 12 1 12 8 0 6 8 -4 23 -19 29 -11 38 20 23
24 -10 25 -16 25 -96z m-1464 -56 c-4 -9 -9 -15 -11 -12 -3 3 -3 13 1 22 4 9
9 15 11 12 3 -3 3 -13 -1 -22z m1855 -24 c-4 -3 -10 -13 -14 -22 -3 -10 -17
-20 -31 -24 -13 -3 -26 -14 -29 -23 -4 -18 -42 -31 -65 -23 -7 2 -12 12 -12
23 0 12 5 16 15 13 9 -4 15 0 15 9 0 27 46 55 89 53 22 0 36 -3 32 -6z m-705
-127 c-10 -10 -19 5 -10 18 6 11 8 11 12 0 2 -7 1 -15 -2 -18z m-36 -32 c0
-23 -16 -36 -25 -21 -9 14 1 40 15 40 5 0 10 -9 10 -19z m29 -82 c-14 -8 -29
-3 -29 11 0 4 9 6 21 3 15 -4 17 -8 8 -14z m-1589 -134 c0 -8 -4 -15 -10 -15
-5 0 -7 7 -4 15 4 8 8 15 10 15 2 0 4 -7 4 -15z m-10 -35 c0 -5 -2 -10 -4 -10
-3 0 -8 5 -11 10 -3 6 -1 10 4 10 6 0 11 -4 11 -10z m4138 -382 c11 -38 0 -55
-38 -58 -39 -3 -50 -1 -50 11 0 6 9 9 20 6 22 -6 40 17 40 52 0 32 18 25 28
-11z m-66 -120 l1 -43 4 43 c6 57 33 59 33 2 0 -22 5 -40 10 -40 6 0 10 18 10
40 0 29 4 40 15 40 11 0 15 -12 16 -42 l1 -43 15 43 c20 56 37 42 36 -29 -1
-39 2 -49 13 -45 10 4 14 -2 14 -19 0 -18 -5 -25 -20 -25 -17 0 -20 -7 -20
-47 0 -56 -11 -78 -34 -70 -10 4 -25 -2 -37 -14 l-21 -21 24 -25 c22 -24 23
-24 26 -4 4 26 6 26 42 -1 26 -19 28 -24 16 -37 -11 -13 -12 -30 -5 -80 10
-70 2 -90 -35 -92 -17 -1 -17 -2 -3 -6 23 -6 25 -83 2 -83 -8 0 -15 5 -15 10
0 13 -27 13 -35 -1 -4 -5 0 -18 8 -27 13 -15 11 -20 -20 -49 -19 -17 -32 -25
-29 -18 8 21 -22 7 -35 -16 -5 -11 -18 -19 -29 -19 -10 0 -25 -9 -33 -21 -11
-15 -26 -20 -58 -21 -25 0 -48 -6 -54 -15 -6 -7 -30 -15 -54 -16 -42 -2 -46 0
-64 36 -12 20 -26 37 -33 37 -13 0 -27 -27 -19 -40 3 -4 -4 -10 -15 -13 -12
-3 -28 4 -44 20 -15 14 -32 23 -40 20 -9 -4 -18 -2 -21 3 -4 6 -1 10 6 10 8 0
5 7 -6 20 -21 23 -39 16 -32 -12 5 -18 3 -17 -26 5 -19 14 -33 35 -35 51 -2
14 -12 31 -23 37 -11 5 -19 18 -18 27 3 32 -1 42 -16 42 -16 0 -21 16 -6 22 5
2 4 13 -3 26 l-13 24 -13 -31 c-16 -39 -31 -41 -24 -3 3 16 -1 43 -10 62 -10
21 -13 25 -9 10 5 -22 4 -23 -11 -11 -9 7 -16 22 -16 33 0 14 6 18 26 16 32
-4 58 27 35 41 -9 6 -12 18 -7 36 6 25 8 26 20 10 12 -17 13 -16 19 6 3 13 1
26 -5 30 -7 5 -6 9 3 15 8 5 21 29 30 54 18 52 42 62 70 31 11 -12 31 -21 44
-21 15 0 26 -7 31 -22 l6 -21 19 24 18 24 20 -22 c12 -12 21 -28 21 -35 0 -8
5 -6 11 5 12 21 48 23 55 2 9 -23 44 -19 44 5 0 11 -6 20 -14 20 -8 0 -16 6
-19 14 -4 11 3 13 34 9 35 -5 41 -3 46 16 3 11 12 21 20 21 8 0 11 5 8 10 -10
16 5 50 22 50 11 0 14 -8 11 -30 -3 -20 0 -30 8 -30 7 0 15 -8 17 -17 3 -10 3
-1 2 20 -3 39 5 46 25 22 7 -8 16 -15 21 -15 5 0 9 7 9 15 0 8 -7 15 -15 15
-11 0 -15 11 -15 40 0 36 3 40 24 40 13 0 26 -5 28 -11 2 -5 10 -8 18 -4 11 4
14 17 12 50 -4 40 -2 45 17 45 18 0 21 -7 23 -42z m228 -75 c-1 -47 -26 -86
-40 -63 -7 11 -5 16 10 18 16 3 20 11 20 43 0 21 2 39 5 39 3 0 5 -17 5 -37z
m45 17 c3 -5 -1 -10 -10 -10 -9 0 -13 5 -10 10 3 6 8 10 10 10 2 0 7 -4 10
-10z m-428 -32 c-3 -8 -6 -5 -6 6 -1 11 2 17 5 13 3 -3 4 -12 1 -19z m483 -44
c0 -8 -4 -12 -10 -9 -5 3 -10 10 -10 16 0 5 5 9 10 9 6 0 10 -7 10 -16z m-750
-19 c0 -8 -4 -15 -10 -15 -5 0 -10 7 -10 15 0 8 5 15 10 15 6 0 10 -7 10 -15z
m590 -61 c0 -9 -5 -14 -12 -12 -18 6 -21 28 -4 28 9 0 16 -7 16 -16z m51 -19
c-1 -15 -24 -12 -29 3 -3 9 2 13 12 10 10 -1 17 -7 17 -13z m-21 -119 c0 -2
-7 -6 -15 -10 -8 -3 -15 -1 -15 4 0 6 7 10 15 10 8 0 15 -2 15 -4z m403 -153
c-3 -8 -12 -12 -19 -9 -21 8 -17 -21 4 -30 9 -4 20 -6 25 -6 4 1 7 -5 7 -14 0
-10 -6 -14 -14 -11 -9 4 -16 -3 -20 -19 -4 -16 -14 -24 -29 -24 -32 -1 -62
-22 -62 -45 0 -13 -12 -26 -34 -37 -19 -9 -39 -22 -44 -27 -6 -6 -28 -11 -49
-11 -29 0 -36 3 -32 15 4 8 9 13 13 10 4 -2 21 0 37 5 20 7 5 8 -53 4 l-83 -6
0 31 c0 23 -4 29 -15 25 -11 -4 -15 0 -15 16 0 16 4 20 15 16 9 -3 18 1 21 9
4 8 14 15 24 15 10 0 20 6 23 13 7 23 34 -11 41 -53 8 -52 26 -52 26 0 0 34 3
40 23 42 30 2 39 4 61 13 12 5 21 3 27 -6 6 -10 9 -10 9 -1 0 6 7 12 16 12 9
0 14 6 11 13 -3 8 8 26 24 42 17 15 29 35 28 44 -4 40 2 45 20 17 11 -16 17
-35 14 -43z m-175 -24 c-2 -6 -7 -10 -11 -10 -4 1 -14 1 -22 1 -8 0 -15 5 -15
10 0 6 12 10 26 10 14 0 24 -5 22 -11z m62 -19 c0 -5 -7 -10 -15 -10 -8 0 -15
5 -15 10 0 6 7 10 15 10 8 0 15 -4 15 -10z m-204 -225 c-19 -15 -19 -15 2 -15
12 0 22 -4 22 -10 0 -5 -8 -10 -19 -10 -10 0 -24 -7 -31 -15 -16 -19 -27 -19
-46 -1 -23 23 -17 46 11 46 14 0 25 5 25 10 0 6 12 10 28 10 26 -1 26 -1 8
-15z m74 11 c0 -9 -30 -14 -35 -6 -4 6 3 10 14 10 12 0 21 -2 21 -4z m-2902
-302 c3 -23 -33 -74 -53 -74 -17 0 -24 47 -11 78 13 30 60 27 64 -4z m347
-244 c3 -5 1 -10 -4 -10 -6 0 -11 5 -11 10 0 6 2 10 4 10 3 0 8 -4 11 -10z
m300 -160 c3 -5 1 -10 -4 -10 -6 0 -11 5 -11 10 0 6 2 10 4 10 3 0 8 -4 11
-10z m4440 -120 c3 -5 -3 -10 -14 -10 -11 0 -23 5 -26 10 -3 6 3 10 14 10 11
0 23 -4 26 -10z m65 -25 c10 -12 9 -15 -7 -15 -18 0 -19 -4 -11 -57 7 -50 4
-142 -7 -256 -1 -15 -9 -33 -18 -40 -8 -7 -20 -29 -27 -49 -6 -21 -15 -38 -19
-38 -12 0 -31 64 -31 103 0 28 -4 37 -17 38 -10 1 -24 2 -32 3 -7 0 -17 10
-21 22 -11 29 21 68 57 70 29 1 40 21 29 50 -5 14 -8 14 -22 -1 -10 -9 -29
-15 -50 -13 -19 1 -39 -3 -46 -10 -15 -15 -48 -16 -48 -2 0 6 -9 10 -20 10
-21 0 -29 30 -7 30 6 1 30 9 52 20 22 11 46 19 53 20 6 0 12 11 12 24 0 31 17
43 62 44 36 1 78 29 78 52 0 15 26 12 40 -5z m-280 -208 c0 -4 -13 -13 -30
-18 -16 -6 -30 -18 -30 -26 0 -8 -7 -13 -17 -11 -29 5 -23 51 7 58 36 9 70 7
70 -3z m11 -50 c-8 -8 -11 -7 -11 4 0 20 13 34 18 19 3 -7 -1 -17 -7 -23z
m-63 -77 c2 -11 -7 -15 -35 -14 -79 2 -78 2 -59 22 12 15 25 17 54 13 21 -4
38 -13 40 -21z m242 -196 c0 -14 -4 -23 -10 -19 -5 3 -10 15 -10 26 0 10 5 19
10 19 6 0 10 -12 10 -26z m-347 -1353 c77 -53 249 -251 217 -251 -5 0 -10 3
-10 8 0 18 -138 167 -223 240 -47 40 -39 41 16 3z m-637 1 c6 -4 14 -17 18
-29 5 -15 18 -24 39 -28 42 -7 80 -13 88 -14 13 -2 39 -82 39 -117 0 -48 -43
-91 -99 -100 -23 -4 -44 -11 -47 -15 -3 -5 -10 -9 -15 -9 -6 0 -7 5 -3 11 3 6
-5 23 -18 37 -81 90 -98 140 -44 134 22 -2 27 0 23 12 -21 55 -28 98 -16 112
13 16 19 17 35 6z m679 -137 c50 -49 101 -110 113 -135 l23 -45 -32 40 c-42
52 -192 202 -244 244 l-40 32 45 -23 c25 -13 86 -63 135 -113z m-773 72 c-12
-13 -28 -40 -35 -62 -7 -21 -16 -34 -19 -29 -10 15 20 88 43 107 30 24 38 12
11 -16z m1122 7 c4 -9 4 -19 2 -21 -8 -8 -26 8 -26 23 0 19 16 18 24 -2z
m-473 -32 c56 -36 144 -128 176 -184 21 -36 11 -28 -63 49 -49 51 -109 109
-132 128 -53 42 -43 46 19 7z m-37 -41 c79 -54 196 -190 196 -227 0 -4 -44 38
-97 93 -54 55 -116 114 -138 131 -53 41 -21 44 39 3z m-56 -72 c65 -43 150
-137 183 -201 11 -21 18 -38 16 -38 -2 0 -31 35 -65 78 -33 43 -92 102 -129
132 -91 72 -89 70 -76 70 6 0 38 -18 71 -41z m85 -19 c28 -24 92 -100 85 -100
-2 0 -37 35 -78 77 -71 73 -73 80 -7 23z m-569 -75 c17 -17 21 -27 13 -33 -8
-7 -17 1 -28 24 -20 41 -18 42 15 9z m520 -50 c21 -25 36 -45 33 -45 -2 0 -23
20 -46 45 -23 25 -38 45 -33 45 5 0 26 -20 46 -45z m-588 -10 c-4 -14 -11 -23
-16 -20 -5 3 -13 -2 -18 -11 -7 -13 -11 -12 -26 10 -9 14 -12 26 -6 26 5 0 10
-6 10 -12 1 -8 6 -6 14 4 7 10 16 15 19 11 4 -3 9 2 13 11 10 25 17 11 10 -19z
m-68 -39 c8 -19 7 -28 -4 -43 -11 -15 -13 -15 -8 -1 7 21 -14 61 -28 52 -7 -4
-8 -3 -4 4 12 19 32 14 44 -12z m-74 -48 c23 -32 20 -39 -11 -32 -23 6 -25 4
-20 -15 8 -31 -6 -26 -28 12 -15 26 -16 30 -2 19 20 -17 40 -6 34 19 -7 26 8
24 27 -3z m-64 -73 c0 -34 -23 -49 -42 -27 -29 34 -33 45 -9 33 11 -7 21 -16
21 -21 0 -6 5 -10 10 -10 6 0 10 7 10 15 0 8 -4 15 -8 15 -4 0 -8 9 -9 21 -2
17 1 18 13 9 8 -7 14 -23 14 -35z m-74 -22 c7 -10 13 -22 13 -28 0 -5 -4 -2
-10 8 -5 9 -20 17 -32 17 -18 0 -19 2 -7 10 20 13 21 13 36 -7z m-36 -64 c0
-10 -4 -20 -9 -23 -5 -4 -7 3 -4 14 4 16 2 19 -13 14 -15 -6 -17 -4 -7 6 6 7
9 20 6 29 -3 12 -1 11 11 -3 9 -11 16 -28 16 -37z m-40 -30 c0 -5 -7 -6 -15
-3 -9 4 -15 0 -15 -10 0 -10 -6 -13 -15 -10 -10 4 -15 0 -15 -12 0 -9 -2 -15
-5 -12 -11 10 7 58 21 58 8 0 14 5 14 11 0 8 5 8 15 -1 8 -7 15 -16 15 -21z
m-90 -63 c0 -8 -4 -17 -8 -20 -4 -2 -8 4 -8 15 0 10 4 19 8 19 4 0 8 -6 8 -14z
m1039 -140 c12 -18 21 -42 21 -52 -1 -23 -42 -54 -77 -58 -15 -2 -30 -11 -34
-22 -13 -32 -10 -37 14 -21 22 14 25 13 51 -19 15 -19 32 -34 38 -34 7 0 7 4
-1 14 -9 11 -8 15 5 20 29 11 35 -8 11 -35 -37 -42 -79 -70 -97 -64 -14 4 -16
0 -12 -27 5 -36 1 -34 -41 24 l-27 37 -31 -17 c-24 -13 -33 -14 -36 -4 -3 6
-16 12 -31 12 -27 0 -62 25 -62 44 0 6 7 22 16 34 18 26 39 20 22 -7 -15 -24
-4 -51 21 -51 30 0 34 17 12 49 -12 16 -21 34 -21 41 0 20 24 5 46 -28 20 -29
23 -30 43 -16 12 9 19 20 15 25 -4 6 -11 6 -20 -2 -18 -15 -32 -3 -16 13 19
19 14 29 -13 22 -14 -3 -25 -3 -25 1 0 8 42 44 51 45 3 0 18 -17 32 -37 21
-30 27 -34 33 -20 9 24 -2 59 -26 85 l-21 22 -28 -21 c-16 -12 -34 -18 -40
-14 -7 4 -18 1 -26 -5 -8 -6 -19 -9 -25 -5 -5 3 -23 -3 -39 -14 -16 -12 -32
-21 -37 -21 -18 0 -93 -67 -94 -83 0 -10 -7 -20 -15 -23 -9 -4 -13 -13 -10
-24 4 -11 -3 -23 -20 -34 -30 -20 -31 -33 -5 -66 19 -25 19 -25 34 -5 17 24
10 41 -10 24 -22 -18 -29 -2 -9 21 24 27 39 25 64 -7 13 -18 21 -23 21 -13 1
23 27 53 40 45 8 -5 8 -11 -1 -21 -16 -19 -4 -30 15 -15 13 11 12 18 -9 52
-14 21 -25 43 -25 49 0 24 20 6 66 -60 27 -38 51 -70 54 -70 3 0 11 4 19 9 12
8 13 12 1 26 -14 17 -2 39 15 27 16 -11 45 -60 45 -76 0 -8 -12 -24 -27 -36
l-28 -22 -26 30 c-15 16 -31 38 -37 48 -9 17 -13 17 -38 4 -15 -8 -35 -14 -46
-12 -10 2 -18 -1 -18 -7 0 -5 -3 -16 -6 -25 -4 -10 -1 -16 8 -16 18 0 58 -53
58 -77 0 -13 -3 -14 -12 -5 -19 19 -28 14 -28 -17 0 -16 -7 -34 -15 -41 -13
-11 -15 -7 -15 23 0 31 -3 35 -31 41 -17 3 -46 6 -63 6 -25 1 -37 9 -59 41
-30 44 -29 61 3 41 44 -27 54 0 18 48 -20 28 -20 31 -5 48 10 10 14 22 10 26
-4 4 0 12 10 17 9 6 17 16 17 24 0 8 20 26 45 41 25 14 53 36 63 47 9 12 33
30 52 41 19 10 51 31 70 45 25 19 45 27 70 25 19 -1 41 3 48 9 11 8 16 7 23
-5 21 -38 62 -78 79 -78 10 0 28 9 41 21 l24 20 -27 -5 c-27 -6 -38 6 -18 19
20 12 9 25 -15 19 -33 -8 -32 7 3 28 15 10 28 18 29 18 1 0 11 -15 22 -34z
m-394 -85 c-8 -8 -31 25 -27 38 3 10 9 7 18 -10 7 -13 11 -26 9 -28z m96 -274
c32 -24 32 -53 0 -89 -21 -23 -31 -28 -31 -17 0 9 7 22 15 29 26 21 15 55 -17
55 -26 -1 -36 13 -21 28 10 11 36 8 54 -6z m-773 -61 c29 -35 85 -90 125 -122
39 -32 79 -64 87 -72 29 -28 -90 44 -133 80 -60 50 -156 178 -134 178 2 0 27
-29 55 -64z m482 24 c0 -6 -7 -13 -15 -16 -25 -10 -17 -24 14 -24 41 0 53 -36
21 -62 -12 -10 -32 -18 -44 -18 -20 1 -19 2 7 23 31 26 35 41 8 32 -47 -15
-70 31 -29 59 26 19 38 20 38 6z m-361 -254 c44 -28 14 -28 -35 0 -77 45 -201
181 -212 232 -1 8 48 -38 110 -101 62 -63 124 -122 137 -131z m-95 134 c76
-77 83 -95 10 -28 -40 36 -91 98 -82 98 2 0 34 -32 72 -70z m-172 -38 c37 -44
101 -107 143 -140 42 -34 73 -62 69 -62 -22 0 -113 72 -176 140 -63 67 -118
140 -105 140 2 0 33 -35 69 -78z m119 -51 c30 -27 68 -61 84 -75 l30 -27 -34
17 c-44 21 -134 106 -172 161 -39 56 -37 64 5 14 19 -22 58 -63 87 -90z m-48
-127 c34 -31 51 -50 37 -43 -32 16 -183 167 -199 199 -7 14 12 -3 43 -37 31
-34 85 -88 119 -119z m-3843 86 c0 -5 8 -6 18 -3 13 3 22 -4 30 -22 7 -14 16
-24 21 -20 6 3 20 -5 33 -19 13 -13 42 -35 64 -49 23 -14 51 -42 64 -61 12
-20 25 -36 29 -36 11 0 41 -56 41 -78 0 -11 -7 -27 -15 -36 -8 -8 -15 -31 -15
-50 0 -39 -2 -41 -28 -28 -11 6 -27 4 -42 -4 -19 -10 -20 -14 -7 -14 18 0 23
-15 8 -25 -5 -3 -16 1 -24 10 -13 13 -16 13 -21 -1 -3 -9 -6 -23 -5 -32 0 -11
2 -12 6 -4 8 21 23 13 23 -14 0 -15 -10 -35 -22 -45 -25 -23 -38 -24 -38 -4 0
9 -6 12 -15 9 -24 -10 -70 14 -100 52 -19 24 -33 33 -46 29 -12 -4 -19 1 -24
15 -4 12 -20 34 -35 50 -37 38 -50 62 -50 94 0 31 20 35 27 6 8 -28 23 -14 23
21 0 17 -6 32 -15 35 -8 4 -15 16 -15 28 0 12 -5 27 -12 34 -8 8 -2 20 24 48
20 20 39 49 42 65 5 25 11 29 38 30 24 1 27 3 11 6 -22 4 -29 14 -17 25 7 8
44 -2 44 -12z m3791 -587 c12 20 29 23 29 4 0 -9 19 -13 65 -13 36 0 65 4 65
8 0 10 12 10 29 -1 11 -7 12 -13 3 -23 -8 -10 -8 -18 -1 -25 7 -7 7 -13 0 -17
-5 -4 -16 0 -23 7 -11 12 -14 12 -24 -1 -8 -11 -15 -12 -31 -4 -14 8 -23 8
-30 1 -8 -8 -17 -8 -31 0 -10 6 -22 7 -26 3 -4 -3 -10 -1 -14 5 -6 9 -14 9
-34 -1 -32 -17 -38 -12 -38 30 0 36 19 49 38 25 11 -15 13 -14 23 2z m293 2
c11 15 17 17 27 8 8 -6 25 -13 39 -15 27 -3 37 -32 21 -57 -7 -11 -18 -11 -59
-1 -28 6 -60 9 -71 5 -18 -6 -21 -2 -21 28 0 43 9 51 32 30 17 -15 19 -15 32
2z m-22 -146 c2 -6 26 -12 53 -13 55 -1 67 -16 41 -51 -12 -16 -16 -17 -29 -6
-9 7 -21 10 -27 6 -6 -3 -10 3 -10 14 0 29 -30 27 -31 -1 0 -16 -4 -11 -12 15
-13 43 -27 40 -27 -5 0 -15 -4 -28 -10 -28 -5 0 -10 11 -10 24 0 13 -3 31 -6
40 -5 13 1 16 29 16 19 0 37 -5 39 -11z"/>
<path d="M5453 12473 c9 -2 23 -2 30 0 6 3 -1 5 -18 5 -16 0 -22 -2 -12 -5z"/>
<path d="M5231 12045 c-9 -34 0 -100 16 -115 14 -14 52 8 72 42 20 32 20 32
-1 70 -17 30 -28 38 -49 38 -23 0 -30 -6 -38 -35z"/>
<path d="M5300 10890 c0 -5 5 -10 10 -10 6 0 10 5 10 10 0 6 -4 10 -10 10 -5
0 -10 -4 -10 -10z"/>
<path d="M4916 8831 c-4 -5 -2 -12 3 -15 5 -4 12 -2 15 3 4 5 2 12 -3 15 -5 4
-12 2 -15 -3z"/>
<path d="M5040 8270 c0 -5 5 -10 10 -10 6 0 10 5 10 10 0 6 -4 10 -10 10 -5 0
-10 -4 -10 -10z"/>
<path d="M4207 6512 c-23 -25 -21 -32 8 -32 20 0 25 5 25 25 0 30 -11 32 -33
7z"/>
<path d="M4092 6476 c7 -8 15 -12 17 -11 5 6 -10 25 -20 25 -5 0 -4 -6 3 -14z"/>
<path d="M4081 6414 c0 -11 3 -14 6 -6 3 7 2 16 -1 19 -3 4 -6 -2 -5 -13z"/>
<path d="M3950 6410 c0 -5 5 -10 10 -10 6 0 10 5 10 10 0 6 -4 10 -10 10 -5 0
-10 -4 -10 -10z"/>
<path d="M4045 6410 c-3 -5 -1 -10 4 -10 6 0 11 5 11 10 0 6 -2 10 -4 10 -3 0
-8 -4 -11 -10z"/>
<path d="M3590 6390 c0 -5 5 -10 10 -10 6 0 10 5 10 10 0 6 -4 10 -10 10 -5 0
-10 -4 -10 -10z"/>
<path d="M4010 5910 c0 -5 5 -10 10 -10 6 0 10 5 10 10 0 6 -4 10 -10 10 -5 0
-10 -4 -10 -10z"/>
<path d="M3920 5855 c0 -8 7 -15 16 -15 14 0 14 3 4 15 -7 8 -14 15 -16 15 -2
0 -4 -7 -4 -15z"/>
<path d="M4426 5935 c-3 -9 0 -15 9 -15 8 0 15 7 15 15 0 8 -4 15 -9 15 -5 0
-11 -7 -15 -15z"/>
<path d="M6646 4922 c-3 -5 1 -13 10 -16 25 -9 64 -7 64 4 0 6 -6 10 -12 10
-7 0 -23 3 -34 6 -12 3 -24 1 -28 -4z"/>
<path d="M5663 3073 c2 -10 13 -46 22 -81 21 -70 15 -85 -18 -54 -25 24 -37
28 -37 12 0 -14 60 -80 73 -80 6 0 19 -8 30 -17 18 -17 20 -17 30 -1 10 15 12
15 24 0 12 -16 15 -14 39 12 22 25 25 35 20 69 -9 55 -25 84 -37 66 -8 -12
-11 -11 -20 4 -14 23 -32 22 -24 -3 3 -11 2 -20 -3 -20 -6 0 -13 11 -16 25 -4
14 -11 25 -17 25 -7 0 -9 -10 -5 -25 13 -50 -13 -23 -29 30 -8 30 -20 55 -26
55 -6 0 -9 -8 -6 -17z"/>
<path d="M6052 2087 c-7 -8 -7 -18 -2 -27 10 -17 15 -13 24 18 8 24 -5 30 -22
9z"/>
<path d="M6105 2079 c-10 -15 1 -23 20 -15 9 3 13 10 10 16 -8 13 -22 13 -30
-1z"/>
<path d="M5990 2039 c0 -5 5 -7 10 -4 6 3 10 8 10 11 0 2 -4 4 -10 4 -5 0 -10
-5 -10 -11z"/>
<path d="M6130 2035 c0 -9 6 -12 15 -9 8 4 15 10 15 15 0 5 -7 9 -15 9 -8 0
-15 -7 -15 -15z"/>
<path d="M6080 2020 c0 -5 5 -10 11 -10 5 0 7 5 4 10 -3 6 -8 10 -11 10 -2 0
-4 -4 -4 -10z"/>
<path d="M5960 1915 c-10 -12 -10 -15 4 -15 9 0 16 7 16 15 0 8 -2 15 -4 15
-2 0 -9 -7 -16 -15z"/>
<path d="M5732 1907 c-12 -7 -20 -15 -18 -18 3 -3 7 -16 9 -30 3 -19 11 -25
35 -27 26 -3 32 0 32 16 0 27 -10 33 -32 21 -30 -16 -34 -2 -8 26 25 27 18 32
-18 12z"/>
<path d="M5677 1863 c-12 -12 -7 -22 8 -17 8 4 15 10 15 15 0 11 -14 12 -23 2z"/>
<path d="M1315 1490 c-4 -6 -3 -16 3 -22 6 -6 12 -6 17 2 4 6 3 16 -3 22 -6 6
-12 6 -17 -2z"/>
<path d="M1340 1440 c-13 -8 -12 -10 3 -10 9 0 17 5 17 10 0 12 -1 12 -20 0z"/>
<path d="M1440 1370 c0 -5 5 -10 11 -10 5 0 7 5 4 10 -3 6 -8 10 -11 10 -2 0
-4 -4 -4 -10z"/>
<path d="M1111 1339 c0 -13 4 -33 9 -44 7 -14 8 -8 3 20 -7 46 -13 59 -12 24z"/>
<path d="M1270 1171 c0 -6 5 -13 10 -16 6 -3 10 1 10 9 0 9 -4 16 -10 16 -5 0
-10 -4 -10 -9z"/>
<path d="M85 12163 c-16 -2 -42 -9 -57 -15 l-28 -10 0 -514 0 -513 33 -5 c72
-11 267 -33 367 -41 41 -3 110 -11 153 -16 44 -6 103 -7 131 -4 42 6 54 4 59
-8 3 -9 27 -16 64 -21 70 -8 150 -22 180 -31 17 -6 24 -3 29 11 23 68 27 72
66 70 21 0 40 -7 43 -13 5 -15 35 -18 35 -4 0 5 -6 16 -13 23 -24 24 -28 64
-9 89 21 28 48 106 39 115 -17 17 -91 -39 -114 -86 -12 -25 -22 -39 -23 -32 0
6 -7 12 -15 12 -10 0 -15 10 -16 28 0 15 -7 131 -16 257 -8 127 -15 261 -16
298 l-2 68 75 3 c41 1 86 -1 100 -7 14 -5 63 -11 110 -13 88 -5 113 -17 103
-52 -2 -9 2 -26 10 -36 14 -19 15 -18 21 11 9 38 24 52 51 47 11 -2 65 -6 120
-9 118 -6 161 -12 235 -31 92 -24 178 -126 199 -238 8 -44 5 -104 -18 -401 -6
-77 -18 -232 -27 -345 -8 -113 -21 -288 -29 -390 -8 -102 -22 -297 -30 -435
-9 -137 -21 -279 -26 -315 -6 -36 -10 -76 -10 -90 13 -182 -20 -617 -55 -715
-17 -49 -19 -89 -4 -65 8 13 10 12 10 -2 0 -10 -4 -18 -10 -18 -5 0 -10 -9
-10 -19 0 -11 -4 -23 -10 -26 -14 -9 -12 -35 3 -35 7 0 30 9 52 20 24 12 41
16 45 10 18 -29 46 129 38 210 -8 79 2 466 15 595 20 196 43 520 57 800 5 116
12 224 15 240 3 17 7 71 10 120 7 132 14 238 25 350 33 337 35 383 26 525 -5
74 -60 178 -119 224 -49 39 -174 95 -214 96 -12 0 -31 12 -42 26 -18 23 -23
25 -37 13 -23 -19 -133 -21 -161 -3 -14 9 -51 14 -95 15 -40 0 -95 4 -123 10
-51 9 -231 31 -273 33 -14 1 -24 8 -27 21 -2 11 -6 31 -9 45 -6 27 -64 70 -95
70 -11 0 -36 10 -56 21 -27 16 -39 19 -48 10 -6 -6 -7 -11 -3 -11 5 0 3 -7 -4
-15 -12 -15 -16 -81 -20 -307 -1 -65 -6 -120 -11 -124 -11 -6 -10 -12 -14 96
-2 47 -6 105 -9 130 -6 41 -35 149 -43 159 -8 11 -41 -44 -47 -80 -4 -23 -11
-37 -16 -34 -6 4 -8 10 -5 15 3 5 -3 26 -14 47 -14 29 -18 50 -14 87 4 33 3
47 -5 42 -12 -7 -42 20 -42 39 0 9 -15 13 -47 13 -76 0 -322 11 -341 15 -9 2
-30 2 -47 0z m654 -770 c0 -62 -4 -113 -8 -113 -11 0 -22 212 -14 252 l7 33 8
-30 c4 -16 7 -81 7 -142z"/>
<path d="M641 12064 c0 -11 3 -14 6 -6 3 7 2 16 -1 19 -3 4 -6 -2 -5 -13z"/>
<path d="M6260 12030 c0 -5 7 -10 15 -10 8 0 15 5 15 10 0 6 -7 10 -15 10 -8
0 -15 -4 -15 -10z"/>
<path d="M5738 12023 c-16 -2 -28 -8 -28 -13 0 -4 -11 -11 -25 -14 -14 -4 -25
-12 -25 -18 0 -6 -6 -19 -14 -27 -8 -9 -17 -36 -21 -61 -5 -40 -2 -51 27 -96
30 -47 37 -52 78 -57 30 -4 52 -1 67 9 12 8 29 14 37 14 19 0 60 122 50 152
-11 35 -45 77 -80 99 -17 10 -33 18 -35 18 -2 -1 -16 -4 -31 -6z"/>
<path d="M5997 11996 c-42 -42 -72 -122 -58 -157 5 -13 25 -41 45 -61 31 -31
44 -38 77 -38 79 0 126 45 135 128 5 38 2 53 -18 81 -25 38 -67 65 -115 75
-27 6 -36 2 -66 -28z"/>
<path d="M6257 11923 c-3 -5 -2 -15 2 -22 7 -10 10 -10 16 -1 4 6 3 16 -3 22
-5 5 -12 6 -15 1z"/>
<path d="M6255 11851 c-7 -22 0 -41 16 -41 11 0 12 30 0 49 -7 11 -10 9 -16
-8z"/>
<path d="M1381 11584 c0 -11 3 -14 6 -6 3 7 2 16 -1 19 -3 4 -6 -2 -5 -13z"/>
<path d="M1389 11506 c-7 -19 -23 -39 -36 -45 -26 -12 -27 -36 -2 -36 8 0 19
-3 24 -7 18 -11 90 6 90 22 0 10 8 14 23 12 26 -4 28 5 5 38 -20 30 -40 43
-70 47 -17 3 -24 -4 -34 -31z"/>
<path d="M1520 11456 c0 -9 5 -16 10 -16 6 0 10 4 10 9 0 6 -4 13 -10 16 -5 3
-10 -1 -10 -9z"/>
<path d="M1293 11389 c14 -8 22 -8 30 0 8 8 3 11 -18 11 -26 -1 -28 -2 -12
-11z"/>
<path d="M1208 11323 c-16 -8 -28 -20 -28 -27 0 -20 27 -28 34 -10 3 8 12 14
20 14 15 0 28 24 19 34 -8 8 -13 7 -45 -11z"/>
<path d="M1879 11150 c-1 -9 -29 -124 -35 -147 -5 -19 -2 -23 14 -23 12 0 27
10 34 23 15 27 15 124 -1 140 -6 6 -11 9 -12 7z"/>
<path d="M1790 11075 c0 -8 5 -15 10 -15 6 0 10 7 10 15 0 8 -4 15 -10 15 -5
0 -10 -7 -10 -15z"/>
<path d="M1295 10991 c-34 -17 -44 -26 -32 -29 24 -5 22 -22 -3 -22 -13 0 -20
7 -20 18 0 11 -8 27 -19 36 -18 16 -19 16 -25 -8 -3 -14 -9 -52 -12 -85 -7
-67 -13 -61 76 -75 20 -4 42 -15 50 -27 15 -22 89 -59 117 -59 10 0 14 6 10
20 -11 43 67 16 126 -43 20 -21 37 -41 37 -43 0 -3 9 -17 20 -32 48 -66 58
-213 30 -432 -17 -138 -30 -324 -35 -500 -6 -257 -24 -630 -36 -750 -5 -58 -9
-118 -9 -133 0 -15 -6 -69 -14 -120 -12 -75 -15 -207 -6 -329 1 -19 30 -5 58
27 28 31 52 88 52 123 0 7 5 10 10 7 6 -3 10 1 10 10 0 8 11 20 25 25 14 5 25
17 25 25 0 10 -5 13 -11 9 -7 -4 -20 4 -30 17 l-19 24 0 -48 c0 -32 -4 -46
-11 -42 -6 4 -8 22 -4 44 3 20 6 79 5 131 -2 308 7 538 24 620 10 47 17 57 44
69 18 8 32 21 32 28 0 7 6 13 13 13 8 0 22 9 32 20 15 17 16 20 3 20 -9 0 -21
-7 -28 -15 -7 -8 -17 -15 -23 -15 -6 0 -19 -7 -29 -17 -10 -9 -21 -13 -26 -9
-16 17 -6 257 29 656 5 63 12 189 16 278 6 167 3 193 -35 287 -24 57 -161 191
-209 204 -21 5 -59 15 -86 22 -42 10 -47 14 -41 33 8 25 22 36 47 36 22 0 22
6 -3 33 -28 29 -65 29 -125 -2z"/>
<path d="M1483 11000 c-42 -17 -19 -49 34 -50 6 0 9 8 6 20 -7 25 11 26 35 2
18 -18 56 -18 50 0 -3 8 -103 43 -103 37 0 0 -10 -4 -22 -9z"/>
<path d="M1675 10979 c-4 -6 -5 -12 -2 -15 2 -3 7 2 10 11 7 17 1 20 -8 4z"/>
<path d="M1027 10744 c-4 -4 -7 -20 -7 -35 0 -15 -4 -38 -9 -51 -5 -13 -12
-58 -16 -101 -7 -69 -6 -77 10 -77 15 0 16 8 10 80 -6 68 -5 80 8 80 11 0 16
14 19 48 5 46 -2 69 -15 56z"/>
<path d="M5865 10600 c-3 -5 3 -10 15 -10 12 0 18 5 15 10 -3 6 -10 10 -15 10
-5 0 -12 -4 -15 -10z"/>
<path d="M90 10480 c-8 -5 -10 -10 -5 -10 6 0 17 5 25 10 8 5 11 10 5 10 -5 0
-17 -5 -25 -10z"/>
<path d="M990 10434 c-6 -14 -10 -45 -10 -70 0 -24 -4 -44 -9 -44 -5 0 -12
-35 -16 -77 -4 -42 -13 -98 -19 -124 -9 -33 -10 -51 -3 -58 7 -7 7 -23 -1 -48
-11 -40 -27 -222 -23 -283 1 -19 1 -60 1 -90 0 -72 8 -109 21 -89 5 7 9 30 9
50 0 20 6 42 14 48 11 9 15 40 16 124 1 123 1 131 25 327 23 197 31 360 16
360 -6 0 -16 -12 -21 -26z m-30 -716 c0 -16 -3 -19 -11 -11 -6 6 -8 16 -5 22
11 17 16 13 16 -11z"/>
<path d="M30 10115 c0 -8 5 -15 10 -15 6 0 10 7 10 15 0 8 -4 15 -10 15 -5 0
-10 -7 -10 -15z"/>
<path d="M25 10061 c-7 -12 12 -24 25 -16 11 7 4 25 -10 25 -5 0 -11 -4 -15
-9z"/>
<path d="M6000 9935 c0 -8 7 -15 16 -15 14 0 14 3 4 15 -7 8 -14 15 -16 15 -2
0 -4 -7 -4 -15z"/>
<path d="M1419 9924 c-12 -15 -5 -44 11 -44 5 0 10 9 10 19 0 13 8 21 23 23
20 3 20 4 -5 9 -18 4 -32 1 -39 -7z"/>
<path d="M6280 9880 c0 -11 5 -20 10 -20 6 0 10 9 10 20 0 11 -4 20 -10 20 -5
0 -10 -9 -10 -20z"/>
<path d="M6240 9845 c0 -16 30 -29 41 -18 4 4 -3 13 -17 20 -19 9 -24 8 -24
-2z"/>
<path d="M26 9741 c-4 -5 -2 -12 3 -15 5 -4 12 -2 15 3 4 5 2 12 -3 15 -5 4
-12 2 -15 -3z"/>
<path d="M0 9660 c0 -11 5 -20 10 -20 6 0 10 9 10 20 0 11 -4 20 -10 20 -5 0
-10 -9 -10 -20z"/>
<path d="M8 9573 c7 -3 16 -2 19 1 4 3 -2 6 -13 5 -11 0 -14 -3 -6 -6z"/>
<path d="M7696 9551 c-24 -26 -9 -47 37 -53 18 -3 38 -7 46 -9 18 -5 33 47 18
60 -7 5 -28 12 -47 16 -29 5 -39 2 -54 -14z"/>
<path d="M921 9483 c0 -21 4 -47 9 -58 6 -14 9 -4 9 38 1 32 -3 57 -9 57 -5 0
-10 -17 -9 -37z"/>
<path d="M21 9465 c-13 -14 -18 -25 -12 -25 6 0 11 -17 11 -40 0 -22 -4 -40
-10 -40 -5 0 -10 -9 -10 -20 0 -11 4 -20 9 -20 5 0 9 -19 9 -42 -1 -24 2 -59
6 -78 6 -31 5 -33 -7 -17 -13 15 -14 11 -13 -38 0 -49 3 -55 21 -55 17 0 21 6
22 38 0 20 3 67 7 103 4 48 2 76 -9 102 -18 42 -20 104 -4 109 6 2 9 13 7 25
l-3 22 -24 -24z"/>
<path d="M876 9317 c-9 -35 -7 -38 14 -20 24 21 25 29 6 36 -9 4 -16 -3 -20
-16z"/>
<path d="M7755 9330 c-46 -41 -55 -51 -55 -61 0 -6 10 -9 23 -7 12 2 21 8 20
15 -1 6 7 19 17 28 20 18 26 35 13 35 -5 -1 -12 -5 -18 -10z"/>
<path d="M7798 9333 c7 -3 16 -2 19 1 4 3 -2 6 -13 5 -11 0 -14 -3 -6 -6z"/>
<path d="M7810 9301 c0 -12 6 -21 16 -21 9 0 14 7 12 17 -5 25 -28 28 -28 4z"/>
<path d="M1006 9251 c-3 -4 -8 -37 -11 -72 -3 -35 -8 -71 -11 -81 -8 -25 5
-63 18 -50 9 9 22 212 13 212 -2 0 -6 -4 -9 -9z"/>
<path d="M17 9064 c-9 -10 2 -24 19 -24 8 0 14 7 14 15 0 15 -21 21 -33 9z"/>
<path d="M977 8968 c-14 -136 -30 -251 -48 -338 -10 -52 -19 -117 -18 -145 l0
-50 29 34 c16 19 29 44 29 55 0 12 5 44 11 71 6 28 10 68 10 90 -1 22 4 98 10
169 10 124 8 166 -9 166 -5 0 -11 -24 -14 -52z"/>
<path d="M2000 8850 c0 -6 -16 -20 -35 -31 -36 -21 -49 -47 -17 -34 9 4 33 9
52 12 43 5 51 12 44 41 -6 22 -44 32 -44 12z"/>
<path d="M2070 8784 c0 -8 5 -12 10 -9 6 3 10 10 10 16 0 5 -4 9 -10 9 -5 0
-10 -7 -10 -16z"/>
<path d="M1701 8523 c0 -11 3 -13 6 -5 2 6 10 9 15 6 7 -4 8 -2 4 4 -11 18
-26 14 -25 -5z"/>
<path d="M1121 8494 c0 -11 3 -14 6 -6 3 7 2 16 -1 19 -3 4 -6 -2 -5 -13z"/>
<path d="M1425 8490 c-3 -5 -1 -10 4 -10 6 0 11 5 11 10 0 6 -2 10 -4 10 -3 0
-8 -4 -11 -10z"/>
<path d="M1411 8454 c0 -11 3 -14 6 -6 3 7 2 16 -1 19 -3 4 -6 -2 -5 -13z"/>
<path d="M7 8113 c-11 -11 -8 -95 3 -88 5 3 10 15 10 27 0 11 8 22 20 25 16 4
18 9 9 24 -10 19 -30 25 -42 12z"/>
<path d="M684 8036 c-3 -7 4 -30 15 -50 12 -20 21 -46 21 -58 0 -12 3 -18 7
-14 4 4 8 17 8 29 0 15 7 23 22 25 23 3 37 39 27 66 -8 21 -92 23 -100 2z"/>
<path d="M7460 8001 c0 -14 9 -20 35 -23 19 -2 35 0 35 4 0 4 -4 8 -10 8 -5 0
-10 7 -10 15 0 9 -9 15 -25 15 -18 0 -25 -5 -25 -19z"/>
<path d="M25 8000 c-3 -5 -2 -10 4 -10 5 0 13 5 16 10 3 6 2 10 -4 10 -5 0
-13 -4 -16 -10z"/>
<path d="M20 7945 c0 -8 5 -15 10 -15 6 0 10 7 10 15 0 8 -4 15 -10 15 -5 0
-10 -7 -10 -15z"/>
<path d="M700 7870 c-13 -8 -12 -10 3 -10 9 0 17 5 17 10 0 12 -1 12 -20 0z"/>
<path d="M0 7850 c0 -5 5 -10 11 -10 5 0 7 5 4 10 -3 6 -8 10 -11 10 -2 0 -4
-4 -4 -10z"/>
<path d="M7550 7610 c0 -5 5 -10 10 -10 6 0 10 5 10 10 0 6 -4 10 -10 10 -5 0
-10 -4 -10 -10z"/>
<path d="M0 7446 c0 -18 16 -29 30 -21 6 4 5 12 -4 21 -18 18 -26 18 -26 0z"/>
<path d="M160 7452 c0 -5 7 -15 15 -22 8 -7 15 -9 15 -6 0 4 -7 14 -15 22 -8
9 -15 11 -15 6z"/>
<path d="M20 7390 c0 -5 5 -10 10 -10 6 0 10 5 10 10 0 6 -4 10 -10 10 -5 0
-10 -4 -10 -10z"/>
<path d="M168 7353 c6 -2 18 -2 25 0 6 3 1 5 -13 5 -14 0 -19 -2 -12 -5z"/>
<path d="M16 7205 c-10 -15 -15 -34 -13 -43 4 -13 5 -13 6 -2 0 8 11 20 24 25
12 6 22 16 22 24 0 25 -22 23 -39 -4z"/>
<path d="M7720 7142 c0 -6 7 -12 15 -16 8 -3 15 -12 15 -21 0 -8 4 -15 9 -15
12 0 30 -55 34 -104 3 -35 19 -56 42 -56 6 0 3 5 -5 10 -12 7 -12 10 -1 10 10
0 12 18 10 85 -2 46 -8 88 -14 93 -14 14 -105 25 -105 14z"/>
<path d="M7715 7110 c3 -5 8 -10 11 -10 2 0 4 5 4 10 0 6 -5 10 -11 10 -5 0
-7 -4 -4 -10z"/>
<path d="M1800 5190 c0 -5 9 -10 20 -10 11 0 20 5 20 10 0 6 -9 10 -20 10 -11
0 -20 -4 -20 -10z"/>
<path d="M2271 4994 c0 -11 3 -14 6 -6 3 7 2 16 -1 19 -3 4 -6 -2 -5 -13z"/>
<path d="M2275 4890 c-3 -5 3 -10 14 -10 12 0 21 5 21 10 0 6 -6 10 -14 10 -8
0 -18 -4 -21 -10z"/>
<path d="M6692 1785 c-6 -14 -7 -25 -2 -25 9 0 25 39 18 46 -3 2 -10 -7 -16
-21z"/>
<path d="M0 73 l0 -73 51 0 52 0 -34 23 c-24 16 -39 37 -51 72 l-17 50 -1 -72z"/>
<path d="M7830 95 c0 -8 -17 -32 -38 -55 l-39 -40 44 0 43 0 0 55 c0 30 -2 55
-5 55 -3 0 -5 -7 -5 -15z"/>
</g>
</svg>
